<?xml version="1.0" encoding="UTF-8"?>
<svg xmlns="http://www.w3.org/2000/svg" width="1024" height="1024" viewBox="0 0 1024 1024" role="img" aria-label="Chessfish app icon">
  <rect width="1024" height="1024" rx="220" fill="#11110f"/>
  <rect x="96" y="96" width="832" height="832" rx="168" fill="#23211b"/>
  <g opacity="0.96">
    <rect x="96" y="96" width="208" height="208" fill="#f2ead6"/>
    <rect x="512" y="96" width="208" height="208" fill="#f2ead6"/>
    <rect x="304" y="304" width="208" height="208" fill="#f2ead6"/>
    <rect x="720" y="304" width="208" height="208" fill="#f2ead6"/>
    <rect x="96" y="512" width="208" height="208" fill="#f2ead6"/>
    <rect x="512" y="512" width="208" height="208" fill="#f2ead6"/>
    <rect x="304" y="720" width="208" height="208" fill="#f2ead6"/>
    <rect x="720" y="720" width="208" height="208" fill="#f2ead6"/>
    <rect x="304" y="96" width="208" height="208" fill="#6b8f71"/>
    <rect x="720" y="96" width="208" height="208" fill="#6b8f71"/>
    <rect x="96" y="304" width="208" height="208" fill="#6b8f71"/>
    <rect x="512" y="304" width="208" height="208" fill="#6b8f71"/>
    <rect x="304" y="512" width="208" height="208" fill="#6b8f71"/>
    <rect x="720" y="512" width="208" height="208" fill="#6b8f71"/>
    <rect x="96" y="720" width="208" height="208" fill="#6b8f71"/>
    <rect x="512" y="720" width="208" height="208" fill="#6b8f71"/>
  </g>
  <circle cx="512" cy="520" r="330" fill="#11110f" opacity="0.62"/>
  <svg x="174" y="160" width="690" height="690" viewBox="0 0 45 45">
    <g fill="none" fill-rule="evenodd" stroke-linecap="round" stroke-linejoin="round" transform="translate(0,0.3)">
      <path d="M 22,10 C 32.5,11 38.5,18 38,39 L 15,39 C 15,30 25,32.5 23,18" fill="#fbfaf2" stroke="#11110f" stroke-width="2.4"/>
      <path d="M 24,18 C 24.38,20.91 18.45,25.37 16,27 C 13,29 13.18,31.34 11,31 C 9.958,30.06 12.41,27.96 11,28 C 10,28 11.19,29.23 10,30 C 9,30 5.997,31 6,26 C 6,24 12,14 12,14 C 12,14 13.89,12.1 14,10.5 C 13.27,9.506 13.5,8.5 13.5,7.5 C 14.5,6.5 16.5,10 16.5,10 L 18.5,10 C 18.5,10 19.28,8.008 21,7 C 22,7 22,10 22,10" fill="#fbfaf2" stroke="#11110f" stroke-width="2.4"/>
      <path d="M 9.5 25.5 A 0.5 0.5 0 1 1 8.5,25.5 A 0.5 0.5 0 1 1 9.5 25.5 z" fill="#11110f" stroke="#11110f" stroke-width="1"/>
      <path d="M 15 15.5 A 0.5 1.5 0 1 1 14,15.5 A 0.5 1.5 0 1 1 15 15.5 z" fill="#11110f" stroke="#11110f" stroke-width="1" transform="matrix(0.866,0.5,-0.5,0.866,9.693,-5.173)"/>
    </g>
  </svg>
</svg>
